o Shield
v -0.362025 0.097588 -0.014254
v -0.362025 0.097588 0.016996
v -0.330775 0.097588 0.016996
v 0.387975 0.097588 0.016996
v 0.387975 0.097588 -0.014254
v 0.356725 0.097588 -0.014254
v -0.299525 0.066338 -0.014254
v 0.325475 0.066338 0.016996
v 0.325475 0.066338 -0.014254
v -0.299525 0.066338 0.016996
v 0.106725 0.285088 -0.014254
v 0.231725 0.285088 0.016996
v 0.231725 0.285088 -0.014254
v 0.325475 -0.089912 0.016996
v 0.325475 -0.089912 -0.014254
v -0.268275 -0.089912 -0.014254
v -0.268275 -0.089912 0.016996
v 0.294225 -0.089912 0.016996
v 0.294225 -0.089912 -0.014254
v 0.262975 -0.214912 0.016996
v 0.294225 -0.214912 0.016996
v 0.294225 -0.214912 -0.014254
v -0.237025 -0.214912 -0.014254
v -0.237025 -0.214912 0.016996
v -0.237025 -0.246162 -0.014254
v -0.237025 -0.246162 0.016996
v 0.231725 0.222588 0.016996
v -0.205775 -0.246162 -0.014254
v -0.205775 -0.246162 0.016996
v -0.330775 0.222588 -0.014254
v -0.330775 0.222588 0.016996
v -0.330775 0.191338 -0.014254
v 0.231725 -0.246162 -0.014254
v 0.262975 -0.214912 -0.014254
v 0.262975 -0.246162 0.016996
v 0.262975 -0.246162 -0.014254
v 0.231725 -0.246162 0.016996
v -0.205775 -0.308662 -0.014254
v -0.205775 -0.308662 0.016996
v 0.200475 -0.308662 -0.014254
v 0.231725 -0.308662 0.016996
v 0.231725 -0.308662 -0.014254
v 0.200475 -0.308662 0.016996
v -0.143275 -0.339912 -0.014254
v 0.169225 -0.339912 0.016996
v -0.143275 -0.339912 0.016996
v -0.143275 -0.371162 -0.014254
v -0.143275 -0.371162 0.016996
v -0.049525 -0.371162 0.016996
v 0.075475 -0.371162 0.016996
v 0.075475 -0.371162 -0.014254
v 0.169225 -0.339912 -0.014254
v 0.169225 -0.371162 0.016996
v 0.169225 -0.371162 -0.014254
v -0.049525 -0.371162 -0.014254
v -0.049525 -0.402412 -0.014254
v -0.049525 -0.402412 0.016996
v 0.075475 -0.402412 0.016996
v 0.075475 -0.402412 -0.014254
v 0.231725 0.222588 -0.014254
v 0.356725 0.222588 0.016996
v 0.356725 0.222588 -0.014254
v 0.356725 0.191338 0.016996
v -0.330775 0.191338 0.016996
v -0.362025 0.191338 -0.014254
v -0.362025 0.191338 0.016996
v 0.387975 0.191338 0.016996
v 0.387975 0.191338 -0.014254
v 0.356725 0.191338 -0.014254
v -0.080775 0.285088 0.016996
v -0.080775 0.285088 -0.014254
v 0.200475 -0.339912 0.016996
v 0.200475 -0.339912 -0.014254
v -0.174525 -0.308662 0.016996
v -0.174525 -0.308662 -0.014254
v -0.174525 -0.339912 0.016996
v -0.174525 -0.339912 -0.014254
v -0.330775 0.097588 -0.014254
v -0.330775 0.066338 0.016996
v -0.330775 0.066338 -0.014254
v 0.356725 0.066338 0.016996
v 0.356725 0.066338 -0.014254
v 0.356725 0.097588 0.016996
v -0.205775 0.222588 0.016996
v -0.205775 0.222588 -0.014254
v -0.205775 0.285088 -0.014254
v -0.205775 0.285088 0.016996
v -0.299525 -0.089912 -0.014254
v -0.299525 -0.089912 0.016996
v -0.268275 -0.214912 -0.014254
v -0.268275 -0.214912 0.016996
v -0.080775 0.316338 -0.014254
v -0.080775 0.316338 0.016996
v 0.106725 0.285088 0.016996
v 0.106725 0.316338 0.016996
v 0.106725 0.316338 -0.014254
vn -0.0000 -1.0000 -0.0000
vn 1.0000 -0.0000 -0.0000
vn -0.0000 1.0000 -0.0000
vn -1.0000 -0.0000 -0.0000
vn -0.0000 -0.0000 -1.0000
vn -0.0000 -0.0000 1.0000
vt 0.125000 0.625000
vt 0.125000 0.656250
vt 0.156250 0.625000
vt 0.125000 0.625000
vt 0.156250 0.656250
vt 0.187500 0.625000
vt 0.156250 0.625000
vt 0.875000 0.656250
vt 0.843750 0.625000
vt 0.875000 0.625000
vt 0.875000 0.625000
vt 0.843750 0.625000
vt 0.156250 0.593750
vt 0.187500 0.593750
vt 0.843750 0.625000
vt 0.781250 0.593750
vt 0.812500 0.593750
vt 0.843750 0.593750
vt 0.812500 0.593750
vt 0.218750 0.593750
vt 0.156250 0.625000
vt 0.187500 0.593750
vt 0.593750 0.812500
vt 0.718750 0.781250
vt 0.687500 0.812500
vt 0.718750 0.812500
vt 0.718750 0.812500
vt 0.812500 0.468750
vt 0.781250 0.437500
vt 0.812500 0.437500
vt 0.812500 0.437500
vt 0.187500 0.468750
vt 0.218750 0.437500
vt 0.218750 0.468750
vt 0.250000 0.437500
vt 0.218750 0.437500
vt 0.750000 0.437500
vt 0.781250 0.468750
vt 0.781250 0.437500
vt 0.781250 0.437500
vt 0.750000 0.343750
vt 0.718750 0.312500
vt 0.750000 0.312500
vt 0.750000 0.312500
vt 0.781250 0.343750
vt 0.781250 0.312500
vt 0.781250 0.312500
vt 0.218750 0.312500
vt 0.250000 0.312500
vt 0.218750 0.343750
vt 0.281250 0.312500
vt 0.250000 0.312500
vt 0.250000 0.281250
vt 0.281250 0.281250
vt 0.250000 0.312500
vt 0.250000 0.281250
vt 0.718750 0.718750
vt 0.687500 0.750000
vt 0.718750 0.750000
vt 0.312500 0.281250
vt 0.281250 0.281250
vt 0.281250 0.312500
vt 0.281250 0.281250
vt 0.156250 0.750000
vt 0.156250 0.718750
vt 0.187500 0.750000
vt 0.156250 0.750000
vt 0.156250 0.718750
vt 0.718750 0.281250
vt 0.750000 0.312500
vt 0.718750 0.281250
vt 0.750000 0.312500
vt 0.750000 0.281250
vt 0.750000 0.281250
vt 0.687500 0.281250
vt 0.718750 0.312500
vt 0.718750 0.281250
vt 0.312500 0.218750
vt 0.281250 0.218750
vt 0.281250 0.250000
vt 0.281250 0.218750
vt 0.687500 0.218750
vt 0.687500 0.218750
vt 0.718750 0.250000
vt 0.718750 0.218750
vt 0.718750 0.218750
vt 0.687500 0.250000
vt 0.656250 0.218750
vt 0.687500 0.218750
vt 0.343750 0.187500
vt 0.656250 0.218750
vt 0.625000 0.187500
vt 0.656250 0.187500
vt 0.375000 0.187500
vt 0.343750 0.218750
vt 0.343750 0.187500
vt 0.343750 0.156250
vt 0.375000 0.156250
vt 0.343750 0.187500
vt 0.343750 0.156250
vt 0.468750 0.156250
vt 0.437500 0.187500
vt 0.437500 0.156250
vt 0.562500 0.187500
vt 0.531250 0.156250
vt 0.562500 0.156250
vt 0.562500 0.156250
vt 0.656250 0.187500
vt 0.625000 0.156250
vt 0.656250 0.187500
vt 0.656250 0.156250
vt 0.656250 0.156250
vt 0.437500 0.156250
vt 0.437500 0.125000
vt 0.437500 0.156250
vt 0.468750 0.125000
vt 0.437500 0.125000
vt 0.531250 0.125000
vt 0.562500 0.156250
vt 0.562500 0.125000
vt 0.562500 0.125000
vt 0.718750 0.750000
vt 0.843750 0.718750
vt 0.812500 0.750000
vt 0.843750 0.750000
vt 0.843750 0.750000
vt 0.812500 0.718750
vt 0.843750 0.687500
vt 0.843750 0.718750
vt 0.187500 0.718750
vt 0.156250 0.687500
vt 0.156250 0.718750
vt 0.125000 0.718750
vt 0.125000 0.687500
vt 0.156250 0.718750
vt 0.125000 0.718750
vt 0.843750 0.718750
vt 0.875000 0.687500
vt 0.875000 0.718750
vt 0.875000 0.718750
vt 0.843750 0.718750
vt 0.406250 0.781250
vt 0.468750 0.812500
vt 0.406250 0.812500
vt 0.437500 0.812500
vt 0.406250 0.812500
vt 0.656250 0.187500
vt 0.687500 0.218750
vt 0.687500 0.187500
vt 0.687500 0.187500
vt 0.312500 0.250000
vt 0.343750 0.218750
vt 0.312500 0.218750
vt 0.312500 0.218750
vt 0.343750 0.187500
vt 0.312500 0.218750
vt 0.312500 0.187500
vt 0.312500 0.187500
vt 0.156250 0.625000
vt 0.187500 0.593750
vt 0.187500 0.625000
vt 0.156250 0.593750
vt 0.187500 0.593750
vt 0.156250 0.593750
vt 0.812500 0.593750
vt 0.812500 0.625000
vt 0.843750 0.593750
vt 0.812500 0.593750
vt 0.843750 0.593750
vt 0.843750 0.656250
vt 0.812500 0.625000
vt 0.843750 0.625000
vt 0.281250 0.718750
vt 0.312500 0.750000
vt 0.281250 0.750000
vt 0.281250 0.750000
vt 0.281250 0.812500
vt 0.281250 0.781250
vt 0.312500 0.812500
vt 0.281250 0.812500
vt 0.187500 0.437500
vt 0.218750 0.437500
vt 0.187500 0.437500
vt 0.250000 0.312500
vt 0.218750 0.312500
vt 0.250000 0.312500
vt 0.250000 0.343750
vt 0.218750 0.312500
vt 0.437500 0.843750
vt 0.406250 0.812500
vt 0.406250 0.843750
vt 0.468750 0.843750
vt 0.406250 0.843750
vt 0.593750 0.781250
vt 0.562500 0.812500
vt 0.593750 0.812500
vt 0.562500 0.843750
vt 0.593750 0.843750
vt 0.593750 0.812500
vt 0.593750 0.843750
s 0
f 78/159/1 2/2/1 1/1/1
f 5/11/1 83/170/1 6/12/1
f 9/18/1 81/166/1 8/15/1
f 68/140/2 4/9/2 5/11/2
f 61/123/3 60/122/3 27/57/3
f 12/24/3 11/23/3 94/194/3
f 18/37/2 22/47/2 19/40/2
f 15/31/1 18/38/1 19/40/1
f 24/50/1 90/184/1 23/48/1
f 37/75/2 42/86/2 33/69/2
f 22/47/1 20/41/1 34/70/1
f 26/54/4 23/49/4 25/53/4
f 28/61/1 26/55/1 25/53/1
f 64/130/4 30/64/4 32/68/4
f 36/74/2 20/42/2 35/71/2
f 36/74/1 37/76/1 33/69/1
f 54/112/1 50/104/1 51/107/1
f 75/154/1 39/80/1 38/79/1
f 86/177/3 70/142/3 71/146/3
f 42/86/1 43/87/1 40/82/1
f 48/98/4 44/90/4 47/97/4
f 54/112/2 45/92/2 53/109/2
f 59/121/1 57/115/1 56/114/1
f 57/116/4 55/113/4 56/114/4
f 59/121/2 50/105/2 58/118/2
f 55/113/1 48/99/1 47/97/1
f 69/141/2 61/124/2 63/127/2
f 12/25/2 60/122/2 13/27/2
f 64/131/3 65/133/3 66/134/3
f 8/16/2 15/31/2 9/19/2
f 67/138/3 69/141/3 63/128/3
f 73/150/2 43/88/2 72/147/2
f 52/108/1 72/148/1 45/91/1
f 76/155/4 75/154/4 77/158/4
f 46/95/1 77/158/1 44/90/1
f 79/160/4 78/159/4 80/164/4
f 10/21/1 80/163/1 7/13/1
f 82/169/2 83/171/2 81/165/2
f 38/78/4 29/63/4 28/60/4
f 84/173/3 30/64/3 31/65/3
f 17/34/1 88/181/1 16/32/1
f 70/143/4 92/189/4 71/145/4
f 11/23/2 95/197/2 94/195/2
f 17/35/4 90/185/4 91/186/4
f 2/3/4 65/133/4 1/1/4
f 7/14/4 89/182/4 10/20/4
f 96/199/3 93/193/3 95/198/3
f 84/174/4 86/177/4 85/176/4
f 19/40/5 33/69/5 28/61/5
f 18/39/6 94/196/6 70/144/6
f 78/159/1 3/5/1 2/2/1
f 5/11/1 4/8/1 83/170/1
f 9/18/1 82/168/1 81/166/1
f 68/140/2 67/137/2 4/9/2
f 61/123/3 62/126/3 60/122/3
f 12/24/3 13/27/3 11/23/3
f 18/37/2 21/44/2 22/47/2
f 15/31/1 14/28/1 18/38/1
f 24/50/1 91/187/1 90/184/1
f 37/75/2 41/83/2 42/86/2
f 22/47/1 21/45/1 20/41/1
f 26/54/4 24/51/4 23/49/4
f 28/61/1 29/62/1 26/55/1
f 64/130/4 31/66/4 30/64/4
f 36/74/2 34/70/2 20/42/2
f 36/74/1 35/72/1 37/76/1
f 54/112/1 53/110/1 50/104/1
f 75/154/1 74/151/1 39/80/1
f 86/177/3 87/178/3 70/142/3
f 42/86/1 41/84/1 43/87/1
f 48/98/4 46/94/4 44/90/4
f 54/112/2 52/108/2 45/92/2
f 59/121/1 58/119/1 57/115/1
f 57/116/4 49/101/4 55/113/4
f 59/121/2 51/107/2 50/105/2
f 55/113/1 49/102/1 48/99/1
f 69/141/2 62/126/2 61/124/2
f 12/25/2 27/58/2 60/122/2
f 64/131/3 32/68/3 65/133/3
f 8/16/2 14/29/2 15/31/2
f 67/138/3 68/140/3 69/141/3
f 73/150/2 40/82/2 43/88/2
f 52/108/1 73/150/1 72/148/1
f 76/155/4 74/152/4 75/154/4
f 46/95/1 76/156/1 77/158/1
f 79/160/4 3/6/4 78/159/4
f 10/21/1 79/161/1 80/163/1
f 82/169/2 6/12/2 83/171/2
f 38/78/4 39/81/4 29/63/4
f 84/173/3 85/176/3 30/64/3
f 17/34/1 89/182/1 88/181/1
f 70/143/4 93/192/4 92/189/4
f 11/23/2 96/200/2 95/197/2
f 17/35/4 16/33/4 90/185/4
f 2/3/4 66/135/4 65/133/4
f 7/14/4 88/181/4 89/182/4
f 96/199/3 92/190/3 93/193/3
f 84/174/4 87/179/4 86/177/4
f 44/90/5 77/158/5 75/154/5
f 75/154/5 38/79/5 28/61/5
f 28/61/5 25/53/5 23/49/5
f 23/49/5 90/185/5 16/33/5
f 16/33/5 88/181/5 7/14/5
f 7/14/5 80/164/5 78/159/5
f 78/159/5 1/1/5 65/133/5
f 32/68/5 30/64/5 85/176/5
f 78/159/5 65/133/5 32/68/5
f 23/49/5 16/33/5 28/61/5
f 16/33/5 7/14/5 85/176/5
f 28/61/5 16/33/5 19/40/5
f 7/14/5 78/159/5 32/68/5
f 85/176/5 86/177/5 71/146/5
f 7/14/5 32/68/5 85/176/5
f 44/90/5 75/154/5 55/113/5
f 75/154/5 28/61/5 55/113/5
f 55/113/5 47/97/5 44/90/5
f 59/121/5 56/114/5 55/113/5
f 52/108/5 54/112/5 51/107/5
f 51/107/5 59/121/5 55/113/5
f 16/33/5 85/176/5 71/146/5
f 71/146/5 92/191/5 96/200/5
f 16/33/5 71/146/5 11/23/5
f 51/107/5 55/113/5 28/61/5
f 40/82/5 73/150/5 52/108/5
f 52/108/5 51/107/5 40/82/5
f 51/107/5 28/61/5 33/69/5
f 40/82/5 51/107/5 33/69/5
f 16/33/5 11/23/5 19/40/5
f 71/146/5 96/200/5 11/23/5
f 11/23/5 13/27/5 60/122/5
f 33/69/5 42/86/5 40/82/5
f 34/70/5 36/74/5 33/69/5
f 19/40/5 22/47/5 34/70/5
f 9/19/5 15/31/5 19/40/5
f 6/12/5 82/169/5 9/19/5
f 68/140/5 5/11/5 6/12/5
f 60/122/5 62/126/5 69/141/5
f 69/141/5 68/140/5 6/12/5
f 9/19/5 19/40/5 60/122/5
f 19/40/5 34/70/5 33/69/5
f 69/141/5 6/12/5 9/19/5
f 11/23/5 60/122/5 19/40/5
f 60/122/5 69/141/5 9/19/5
f 74/153/6 76/157/6 46/96/6
f 46/96/6 48/100/6 49/103/6
f 49/103/6 57/117/6 58/120/6
f 50/106/6 53/111/6 45/93/6
f 49/103/6 58/120/6 50/106/6
f 74/153/6 46/96/6 49/103/6
f 29/63/6 39/81/6 74/153/6
f 24/52/6 26/56/6 29/63/6
f 17/36/6 91/188/6 24/52/6
f 10/22/6 89/183/6 17/36/6
f 3/7/6 79/162/6 10/22/6
f 66/136/6 2/4/6 3/7/6
f 84/175/6 31/67/6 64/132/6
f 64/132/6 66/136/6 3/7/6
f 10/22/6 17/36/6 84/175/6
f 17/36/6 24/52/6 29/63/6
f 64/132/6 3/7/6 10/22/6
f 70/144/6 87/180/6 84/175/6
f 84/175/6 64/132/6 10/22/6
f 17/36/6 29/63/6 37/77/6
f 84/175/6 17/36/6 70/144/6
f 29/63/6 74/153/6 49/103/6
f 49/103/6 50/106/6 37/77/6
f 50/106/6 45/93/6 43/89/6
f 37/77/6 50/106/6 43/89/6
f 45/93/6 72/149/6 43/89/6
f 43/89/6 41/85/6 37/77/6
f 37/77/6 35/73/6 20/43/6
f 20/43/6 21/46/6 18/39/6
f 18/39/6 14/30/6 8/17/6
f 8/17/6 81/167/6 83/172/6
f 83/172/6 4/10/6 67/139/6
f 63/129/6 61/125/6 27/59/6
f 83/172/6 67/139/6 63/129/6
f 20/43/6 18/39/6 37/77/6
f 18/39/6 8/17/6 27/59/6
f 37/77/6 18/39/6 17/36/6
f 8/17/6 83/172/6 63/129/6
f 27/59/6 12/26/6 94/196/6
f 8/17/6 63/129/6 27/59/6
f 29/63/6 49/103/6 37/77/6
f 70/144/6 17/36/6 18/39/6
f 95/198/6 93/193/6 70/144/6
f 18/39/6 27/59/6 94/196/6
f 94/196/6 95/198/6 70/144/6
